<svg width="59" height="61" viewBox="0 0 59 61" fill="none" xmlns="http://www.w3.org/2000/svg">
<path d="M20 10C20 4.47715 15.5228 0 10 0C4.47715 0 0 4.47715 0 10H20ZM10.5 41C4.97715 41 0.5 45.4772 0.5 51C0.5 56.5228 4.97715 61 10.5 61V41ZM0 10V12.25H20V10H0ZM35.5 35H35.7038V15H35.5V35ZM36.2962 41H10.5V61H36.2962V41ZM22.75 35H35.5V15H22.75V35ZM39 38.2962C39 39.7895 37.7895 41 36.2962 41V61C48.8352 61 59 50.8352 59 38.2962H39ZM35.7038 35C37.5242 35 39 36.4758 39 38.2962H59C59 25.4301 48.5699 15 35.7038 15V35ZM0 12.25C0 24.8145 10.1855 35 22.75 35V15C21.2312 15 20 13.7688 20 12.25H0Z" fill="white"/>
<circle cx="24" cy="51" r="6" fill="#FFD128"/>
<circle cx="19" cy="24" r="6" fill="#FF2868"/>
<circle cx="9.5" cy="11.5" r="5.5" fill="#F8B8C3"/>
<circle cx="37.5" cy="51.5" r="4.5" fill="#F8B8C3"/>
<circle cx="47" cy="31" r="6" fill="#009AFF"/>
<circle cx="10" cy="51" r="5" fill="#35C89F"/>
<circle cx="33" cy="25" r="4" fill="#0F00C0"/>
<circle cx="49" cy="44" r="3" fill="#FF9C27"/>
</svg>
