<?xml version="1.0" encoding="utf-8"?>
<!-- Generator: Adobe Illustrator 26.4.1, SVG Export Plug-In . SVG Version: 6.00 Build 0)  -->
<svg version="1.1" id="Layer_1" xmlns="http://www.w3.org/2000/svg" xmlns:xlink="http://www.w3.org/1999/xlink" x="0px" y="0px"
	 viewBox="0 0 232 57" style="enable-background:new 0 0 232 57;" xml:space="preserve">
<style type="text/css">
	.st0{clip-path:url(#SVGID_00000169528701608551499640000016991463731331575704_);}
	.st1{fill:none;stroke:#000000;stroke-width:3.1339;}
</style>
<g>
	<defs>
		<rect id="SVGID_1_" x="89.9" y="14.5" width="142.1" height="41.8"/>
	</defs>
	<clipPath id="SVGID_00000142860392650284623000000012520430144530808751_">
		<use xlink:href="#SVGID_1_"  style="overflow:visible;"/>
	</clipPath>
	<g style="clip-path:url(#SVGID_00000142860392650284623000000012520430144530808751_);">
		<path d="M116.8,42.2c1.4,0,2.5-1.1,2.5-2.5s-1.1-2.5-2.5-2.5s-2.5,1.1-2.5,2.5S115.4,42.2,116.8,42.2z"/>
		<path d="M131.8,29c6.4-3.1,7-6.9,6.9-8.4c-0.1-2.5-1.9-4.5-4.8-5.5c-2.7-0.9-5.6-0.8-8.1,0.2c-2.5,1-4.3,2.8-5.1,5
			c-0.8,2.3-0.5,5.2,2.2,7.7c-6.5,0.8-16.9,0-31.2-7.6l-1.6,3c17.9,9.5,30.2,9,37,7.3c0.7,0.4,1.5,0.7,2.4,1
			c5.2,1.9,7.9,4.8,7.1,7.6c-0.8,2.7-4.8,4.9-9.9,3.7c-2.1-0.5-2.9-1-4.2-1.8l-0.5-0.3l-1.8,3l0.5,0.3c1.4,0.9,2.6,1.6,5.3,2.2
			c1.2,0.3,2.5,0.4,3.6,0.4c5.4,0,9.4-3,10.5-6.6C140.8,36.9,139.2,32.1,131.8,29z M127.3,27c-2.8-1.6-4-3.6-3.4-5.6
			c0.7-2,3.2-3.5,6.1-3.5c0.9,0,1.8,0.1,2.7,0.5c0.7,0.2,2.4,1,2.5,2.4c0.1,1.3-1.4,3.6-5.7,5.5C128.9,26.5,128.1,26.8,127.3,27z"/>
		<path d="M151.7,43.4c-2,0-3.6-1.1-3.6-3.6v-10h6.3v-3.6h-6.3v-5.4h-4v5.4h-4.4v3.6h4.4v10.6c0,4.3,2.8,6.6,6.6,6.6
			c1.8,0,3.8-0.6,5.6-1.8l-1.1-2.9C154.1,43,152.8,43.4,151.7,43.4z"/>
		<path d="M162,29.5v-3.4h-3.9v20.5h4V35.6c0-4.1,2.3-6,5.3-6c0.8,0,1.8,0.2,2.7,0.5l0.7-3.7c-1-0.3-2-0.5-2.9-0.5
			C165.2,25.9,163,27,162,29.5z"/>
		<path d="M187.6,35.9c0,4.1-2.5,6.7-5.9,6.7c-2.9,0-4.9-1.9-4.9-5.1V26.2h-4v12.1c0,5.2,3.8,7.9,8,7.9c3.2,0,5.7-1.5,6.9-4v4.2
			c0,4.1-2.4,6.2-6,6.2c-3.2,0-5.5-1.6-6.5-4.8l-3.7,1.6c1.5,4.5,5.2,6.9,10,6.9c5.8,0,10.1-3.7,10.1-10.3V26.2h-4L187.6,35.9
			L187.6,35.9z"/>
		<path d="M209.4,26.2l-5.9,15.2l-5.8-15.2h-4.4l8.5,20.5h3.5l8.5-20.5H209.4z"/>
		<path d="M232,35.7c0-6.4-3.4-10-9-10c-6.5,0-10.3,5-10.3,10.9c0,5.9,3.9,10.4,10.2,10.4c3.7,0,6.5-1.5,8.6-4.2l-2.2-2.4
			c-1.3,1.8-3.3,3-6,3c-3.7,0-6.1-2-6.6-5.8H232V35.7z M216.7,34.6c0.5-3.5,2.6-5.5,6.1-5.5c3.5,0,5.2,2,5.2,5.5H216.7z"/>
	</g>
</g>
<path class="st1" d="M91.3,22.1C74.8,13.5,58.2-5,22.5,4.8C-13.3,14.5-22.2,36.1-80,32.5"/>
</svg>
