<svg width="232" height="57" viewBox="0 0 232 57" fill="none" xmlns="http://www.w3.org/2000/svg">
<g clip-path="url(#clip0)">
<path d="M116.781 42.1547C118.154 42.1547 119.267 41.0487 119.267 39.6843C119.267 38.3199 118.154 37.2139 116.781 37.2139C115.408 37.2139 114.294 38.3199 114.294 39.6843C114.294 41.0487 115.408 42.1547 116.781 42.1547Z" fill="#FF2868"/>
<path d="M131.769 29.0262C138.162 25.8852 138.73 22.1442 138.659 20.6267C138.553 18.1562 136.777 16.1446 133.829 15.1211C131.129 14.2035 128.252 14.2741 125.731 15.2976C123.28 16.3211 121.398 18.1209 120.616 20.3091C119.799 22.603 120.154 25.497 122.783 28.038C116.247 28.885 105.876 28.038 91.5625 20.4502L89.9287 23.4853C107.794 32.9789 120.154 32.4848 126.903 30.7908C127.649 31.1437 128.43 31.4613 129.318 31.7789C134.504 33.6494 137.238 36.5787 136.386 39.3667C135.569 42.0842 131.556 44.2723 126.477 43.1077C124.346 42.6136 123.564 42.1195 122.25 41.3431L121.753 41.0254L119.941 43.99L120.439 44.3076C121.859 45.1899 122.996 45.8957 125.695 46.4957C126.938 46.778 128.146 46.9192 129.282 46.9192C134.681 46.9192 138.695 43.9194 139.76 40.3549C140.755 36.861 139.156 32.0966 131.769 29.0262ZM127.293 27.0498C124.488 25.4264 123.244 23.4147 123.919 21.4737C124.63 19.4973 127.116 17.9445 129.993 17.9445C130.845 17.9445 131.769 18.0857 132.657 18.4033C133.367 18.6503 135.072 19.3915 135.143 20.7678C135.214 22.1089 133.722 24.3323 129.425 26.2381C128.856 26.5204 128.146 26.8028 127.293 27.0498Z" fill="white"/>
<path d="M151.729 43.3546C149.74 43.3546 148.142 42.2252 148.142 39.7901V29.7672H154.464V26.1674H148.142V20.7324H144.164V26.1674H139.795V29.7672H144.164V40.3195C144.164 44.6251 147.006 46.9544 150.735 46.9544C152.582 46.9544 154.535 46.3897 156.347 45.1545L155.21 42.2605C154.074 42.9664 152.83 43.3546 151.729 43.3546Z" fill="white"/>
<path d="M161.994 29.5204V26.1677H158.087V46.7076H162.065V35.6259C162.065 31.532 164.41 29.6263 167.322 29.6263C168.139 29.6263 169.098 29.8027 169.986 30.1557L170.696 26.45C169.702 26.1324 168.672 25.9559 167.748 25.9559C165.226 25.9206 162.989 27.0147 161.994 29.5204Z" fill="white"/>
<path d="M187.567 35.9081C187.567 39.9666 185.046 42.6135 181.636 42.6135C178.724 42.6135 176.735 40.7078 176.735 37.4962V26.1675H172.686V38.3079C172.686 43.5311 176.486 46.2133 180.642 46.2133C183.803 46.2133 186.36 44.7311 187.567 42.2606V46.4604C187.567 50.5189 185.188 52.6718 181.565 52.6718C178.404 52.6718 176.06 51.1189 175.101 47.8368L171.442 49.3896C172.899 53.8717 176.628 56.2715 181.458 56.2715C187.212 56.2715 191.581 52.6012 191.581 46.0016V26.1675H187.603V35.9081H187.567Z" fill="white"/>
<path d="M209.411 26.1675L203.55 41.3783L197.725 26.1675H193.356L201.81 46.7074H205.326L213.779 26.1675H209.411Z" fill="white"/>
<path d="M232 35.661C232 29.2731 228.591 25.6733 222.979 25.6733C216.443 25.6733 212.643 30.6495 212.643 36.5433C212.643 42.4723 216.515 46.9191 222.872 46.9191C226.602 46.9191 229.372 45.4016 231.503 42.7547L229.265 40.3901C227.951 42.19 225.927 43.4252 223.227 43.4252C219.569 43.4252 217.083 41.4489 216.586 37.6726H232V35.661ZM216.692 34.6022C217.154 31.1436 219.285 29.0967 222.837 29.0967C226.317 29.0967 228.022 31.1083 228.058 34.6022H216.692Z" fill="white"/>
</g>
<path d="M91.3214 22.1396C74.7812 13.4557 58.2411 -4.98976 22.4929 4.77969C-13.2552 14.5491 -22.1964 36.1151 -80 32.4798" stroke="white" stroke-width="3.13393"/>
<defs>
<clipPath id="clip0">
<rect width="142.071" height="41.7857" fill="white" transform="translate(89.9287 14.4785)"/>
</clipPath>
</defs>
</svg>
